<svg width="65" height="65" viewBox="0 0 65 65" fill="none" xmlns="http://www.w3.org/2000/svg">
<path d="M32.9844 62.7428C49.5529 62.7428 62.9844 49.3113 62.9844 32.7427C62.9844 16.1742 49.5529 2.74274 32.9844 2.74274C16.4158 2.74274 2.98438 16.1742 2.98438 32.7427C2.98438 49.3113 16.4158 62.7428 32.9844 62.7428Z" fill="#17353F" stroke="#CFE6ED" stroke-width="4"/>
<path d="M33 4C16.9698 4 4 16.9698 4 33C4 49.0302 16.9698 62 33 62C49.0302 62 62 49.0302 62 33C62 16.9698 49.0302 4 33 4ZM53.062 36.4489L54.9079 36.7889C53.0134 47.3786 43.8325 55.0536 33.0486 55.0536C26.005 55.0536 19.3501 51.6533 15.1725 46.0184L16.6784 44.9012C20.5159 50.0988 26.6365 53.2077 33.0486 53.2077C42.9581 53.1591 51.3618 46.1156 53.062 36.4489ZM33.9229 27.2194V28.3853H31.3484V30.4255H34.7002V31.5913H29.9883V24.062H34.5059V25.2278H31.3484V27.2194H33.9229ZM33.4858 44.9497H32.4171L31.2027 41.6466H27.0251L25.8593 44.9497H24.7906L28.5796 34.603H29.6482L33.4858 44.9497ZM26.5879 31.6399H24.9849L23.8191 27.1709C23.6734 26.6851 23.6248 26.1993 23.6248 26.1993C23.6248 26.1993 23.5762 26.6851 23.4305 27.1709L22.2647 31.6399H20.6616L18.7672 24.062H20.1759L21.3903 29.3082C21.4874 29.7454 21.536 30.0854 21.536 30.0854C21.536 30.0854 21.536 29.7454 21.6817 29.3082L23.0419 24.062H24.2563L25.6164 29.3082C25.7136 29.7454 25.7621 30.0854 25.7621 30.0854C25.7621 30.0854 25.8107 29.6968 25.9079 29.3082L27.1709 24.062H28.5796L26.5879 31.6399ZM42.5209 24.062H43.8811V30.474H47.1843V31.6399H42.5209V24.062ZM41.938 37.7605C41.938 39.7035 40.5779 40.9179 38.732 40.9179H36.1575V44.9497H35.1374V34.603H38.6834C40.5779 34.603 41.938 35.8174 41.938 37.7605ZM36.3032 24.062H37.6633V30.474H40.9665V31.6399H36.3032V24.062ZM33.0972 10.6549C33.8744 10.6549 34.603 10.7035 35.3802 10.7521L35.1859 12.6466C34.5059 12.598 33.7772 12.5494 33.0972 12.5494C21.876 12.5494 12.7437 21.6332 12.7437 32.8543C12.7437 33.6801 12.7923 34.4573 12.8894 35.2831L10.995 35.526C10.8978 34.6516 10.8492 33.7772 10.8492 32.9028C10.8978 20.6131 20.8559 10.6549 33.0972 10.6549ZM33.0972 57.5796C19.4472 57.5796 8.37186 46.4556 8.37186 32.8543C8.37186 26.928 10.5092 21.196 14.3953 16.6784C18.2328 12.258 23.4791 9.34338 29.2596 8.42044L29.5511 10.2663C24.2077 11.0921 19.3501 13.8124 15.804 17.8928C12.2094 22.0218 10.2663 27.3166 10.2663 32.8057C10.2663 45.3869 20.5159 55.6365 33.0972 55.6365C41.7923 55.6365 49.9045 50.536 53.6935 42.7152L55.3936 43.541C51.2647 52.0905 42.5209 57.5796 33.0972 57.5796Z" fill="white"/>
<path d="M36.207 35.5259V39.995H38.6358C39.996 39.995 40.9189 39.1692 40.9189 37.7604C40.9189 36.3517 40.0446 35.5745 38.6358 35.5745H36.207V35.5259Z" fill="white"/>
<path d="M29.1626 35.6717C29.114 35.6717 28.9197 36.5461 28.7254 37.0318L27.3652 40.7722H30.9113L29.5512 37.0318C29.3569 36.5461 29.1626 35.6717 29.1626 35.6717Z" fill="white"/>
</svg>
