<svg width="18" height="18" viewBox="0 0 18 18" fill="none" xmlns="http://www.w3.org/2000/svg">
<path d="M13 0.999878V12.9999L9 10.9999L5 12.9999V0.999878H13ZM3 16.9999H15C15.5304 16.9999 16.0391 16.7892 16.4142 16.4141C16.7893 16.039 17 15.5303 17 14.9999V2.99988C17 2.46944 16.7893 1.96074 16.4142 1.58566C16.0391 1.21059 15.5304 0.999878 15 0.999878H3C2.46957 0.999878 1.96086 1.21059 1.58579 1.58566C1.21071 1.96074 1 2.46944 1 2.99988V14.9999C1 15.5303 1.21071 16.039 1.58579 16.4141C1.96086 16.7892 2.46957 16.9999 3 16.9999Z" stroke="#17353F" stroke-width="2" stroke-linecap="round" stroke-linejoin="round"/>
</svg>
