<svg width="19" height="20" viewBox="0 0 19 20" fill="none" xmlns="http://www.w3.org/2000/svg">
<path d="M18.4201 13.0879L18.4201 13.0879C18.6131 13.2855 18.6094 13.6024 18.4117 13.7956C18.4116 13.7956 18.4116 13.7956 18.4116 13.7956L12.7155 19.3581C12.5192 19.5497 12.2051 19.5476 12.0113 19.3532L9.58252 16.9158L9.27292 17.2243L9.58252 16.9157C9.38745 16.72 9.38798 16.4031 9.58379 16.208C9.7796 16.0129 10.0964 16.0135 10.2915 16.2092C10.2915 16.2093 10.2915 16.2093 10.2915 16.2093L12.0653 17.9894L12.3707 18.2959L12.6802 17.9936L17.7124 13.0794L17.7124 13.0794C17.91 12.8864 18.227 12.8901 18.4201 13.0879ZM2.43701 1.43794C2.02304 1.43794 1.68745 1.77353 1.68745 2.1875V16.5625C1.68745 16.9765 2.02308 17.3121 2.43701 17.3121H6.40055C6.67692 17.3121 6.90099 17.5361 6.90099 17.8125C6.90099 18.0889 6.67692 18.3129 6.40055 18.3129H2.43701C1.47027 18.3129 0.686574 17.5292 0.686574 16.5625V2.1875C0.686574 1.22076 1.47027 0.437062 2.43701 0.437062H13.062C14.0288 0.437062 14.8124 1.22076 14.8124 2.1875V11.8581C14.8124 12.1345 14.5883 12.3586 14.312 12.3586C14.0357 12.3586 13.8116 12.1345 13.8116 11.8581V2.1875C13.8116 1.77356 13.4761 1.43794 13.062 1.43794H2.43701ZM4.43657 5.9375C4.43657 5.66112 4.66063 5.43706 4.93701 5.43706H10.562C10.8384 5.43706 11.0624 5.66112 11.0624 5.9375C11.0624 6.21388 10.8384 6.43794 10.562 6.43794H4.93701C4.66063 6.43794 4.43657 6.21388 4.43657 5.9375ZM4.43657 9.6875C4.43657 9.41112 4.66063 9.18706 4.93701 9.18706H7.43701C7.71339 9.18706 7.93745 9.41112 7.93745 9.6875C7.93745 9.96388 7.71339 10.1879 7.43701 10.1879H4.93701C4.66063 10.1879 4.43657 9.96388 4.43657 9.6875Z" fill="#6B7280" stroke="#569AB2" stroke-width="0.874125"/>
</svg>
