<svg width="19" height="19" viewBox="0 0 19 19" fill="currentColor" xmlns="http://www.w3.org/2000/svg">
<path fill-rule="evenodd" clip-rule="evenodd" d="M15.5363 5.26372C15.705 5.4325 15.7998 5.66137 15.7998 5.90002C15.7998 6.13867 15.705 6.36755 15.5363 6.53632L8.3363 13.7363C8.16753 13.905 7.93865 13.9998 7.7 13.9998C7.46135 13.9998 7.23248 13.905 7.0637 13.7363L3.4637 10.1363C3.29976 9.96658 3.20904 9.73924 3.21109 9.50326C3.21314 9.26728 3.3078 9.04155 3.47466 8.87468C3.64153 8.70782 3.86726 8.61317 4.10324 8.61112C4.33922 8.60906 4.56656 8.69978 4.7363 8.86372L7.7 11.8274L14.2637 5.26372C14.4325 5.095 14.6614 5.00021 14.9 5.00021C15.1386 5.00021 15.3675 5.095 15.5363 5.26372Z" />
</svg>
