<svg width="20" height="20" viewBox="0 0 20 20" fill="none" xmlns="http://www.w3.org/2000/svg">
<path d="M4 3.99988C3.46957 3.99988 2.96086 4.21059 2.58579 4.58566C2.21071 4.96074 2 5.46944 2 5.99988V6.99988H18V5.99988C18 5.46944 17.7893 4.96074 17.4142 4.58566C17.0391 4.21059 16.5304 3.99988 16 3.99988H4Z" fill="currentColor"/>
<path fill-rule="evenodd" clip-rule="evenodd" d="M18 8.99988H2V13.9999C2 14.5303 2.21071 15.039 2.58579 15.4141C2.96086 15.7892 3.46957 15.9999 4 15.9999H16C16.5304 15.9999 17.0391 15.7892 17.4142 15.4141C17.7893 15.039 18 14.5303 18 13.9999V8.99988ZM4 12.9999C4 12.7347 4.10536 12.4803 4.29289 12.2928C4.48043 12.1052 4.73478 11.9999 5 11.9999H6C6.26522 11.9999 6.51957 12.1052 6.70711 12.2928C6.89464 12.4803 7 12.7347 7 12.9999C7 13.2651 6.89464 13.5194 6.70711 13.707C6.51957 13.8945 6.26522 13.9999 6 13.9999H5C4.73478 13.9999 4.48043 13.8945 4.29289 13.707C4.10536 13.5194 4 13.2651 4 12.9999ZM9 11.9999C8.73478 11.9999 8.48043 12.1052 8.29289 12.2928C8.10536 12.4803 8 12.7347 8 12.9999C8 13.2651 8.10536 13.5194 8.29289 13.707C8.48043 13.8945 8.73478 13.9999 9 13.9999H10C10.2652 13.9999 10.5196 13.8945 10.7071 13.707C10.8946 13.5194 11 13.2651 11 12.9999C11 12.7347 10.8946 12.4803 10.7071 12.2928C10.5196 12.1052 10.2652 11.9999 10 11.9999H9Z" fill="currentColor"/>
</svg>
