<svg xmlns="http://www.w3.org/2000/svg">
  <g fill="currentColor" fill-rule="evenodd">
    <path
      d="M.293 5.707a1 1 0 0 0 1.414 0L3 4.414l1.293 1.293a1 1 0 1 0 1.414-1.414L4.414 3l1.293-1.293A1 1 0 1 0 4.293.293L3 1.586 1.707.293A1 1 0 1 0 .293 1.707L1.586 3 .293 4.293a1 1 0 0 0 0 1.414zM15.707 10.293a1 1 0 0 0-1.414 0L13 11.586l-1.293-1.293a1 1 0 1 0-1.414 1.414L11.586 13l-1.293 1.293a1 1 0 1 0 1.414 1.414L13 14.414l1.293 1.293a.997.997 0 0 0 1.414 0 1 1 0 0 0 0-1.414L14.414 13l1.293-1.293a1 1 0 0 0 0-1.414z" />
    <path
      d="M15 0h-5v2h2.586L6.019 8.567A3.955 3.955 0 0 0 4 8c-2.206 0-4 1.794-4 4s1.794 4 4 4 4-1.794 4-4c0-.74-.215-1.424-.567-2.02L14 3.415V6h2V1a1 1 0 0 0-1-1zM4 14c-1.103 0-2-.897-2-2s.897-2 2-2 2 .897 2 2-.897 2-2 2z"
      fill-rule="nonzero" />
  </g>
</svg>
