<svg width="19" height="16" viewBox="0 0 19 16" fill="none" xmlns="http://www.w3.org/2000/svg">
<path fill-rule="evenodd" clip-rule="evenodd" d="M17.039 9.93123L14.5743 9.22735C14.3919 9.17534 14.2471 9.03621 14.188 8.85598L13.9938 8.25951C14.8937 8.31891 15.7948 8.1622 16.6219 7.80245C16.7642 7.72872 16.8689 7.59864 16.9107 7.44394C16.9524 7.28924 16.9272 7.12412 16.8413 6.98887C16.225 5.9628 15.9309 4.7754 15.9969 3.5803C16.0243 1.70251 14.5784 0.131141 12.7049 0.00262079C11.305 -0.0519808 10.0128 0.750664 9.44141 2.02971C9.98572 2.82147 10.2792 3.75873 10.2835 4.71954C10.2156 5.70144 10.4483 6.68076 10.9509 7.52706C11.1984 7.92361 11.2733 8.40407 11.1581 8.85713C11.0429 9.31019 10.7476 9.69653 10.3407 9.92666L10.4972 9.97237C11.7221 10.3264 12.5662 11.4466 12.5689 12.7216V15.4286C12.567 15.6237 12.5314 15.8169 12.4638 15.9999H17.7109C18.0264 15.9999 18.2822 15.7441 18.2822 15.4286V11.579C18.282 10.8138 17.7747 10.1414 17.039 9.93123Z" fill="#D2B59F"/>
<path fill-rule="evenodd" clip-rule="evenodd" d="M10.1834 11.0739L7.7187 10.37C7.53629 10.318 7.39159 10.1789 7.33248 9.99864L7.13822 9.40217C8.03818 9.46157 8.93929 9.30486 9.76635 8.94511C9.90861 8.87138 10.0134 8.7413 10.0551 8.5866C10.0968 8.4319 10.0716 8.26678 9.98574 8.13153C9.36947 7.10546 9.0753 5.91806 9.14131 4.72296C9.16879 2.84517 7.72289 1.2738 5.8493 1.14528C4.91681 1.10826 4.00954 1.45301 3.33695 2.09994C2.66436 2.74687 2.28459 3.64005 2.28533 4.57327C2.37304 5.81762 2.07969 7.05917 1.44433 8.13267C1.3589 8.26798 1.33413 8.43292 1.37605 8.58735C1.41797 8.74179 1.52274 8.87156 1.66486 8.94511C2.49192 9.30486 3.39303 9.46157 4.29299 9.40217L4.09874 9.99864C4.03962 10.1789 3.89492 10.318 3.71252 10.37L1.24779 11.0739C0.510235 11.2824 0.000738897 11.9552 0 12.7216V15.4286C0 15.7441 0.255794 15.9999 0.571332 15.9999H10.8553C11.1708 15.9999 11.4266 15.7441 11.4266 15.4286V12.7216C11.4265 11.9564 10.9192 11.2841 10.1834 11.0739Z" fill="#D2B59F"/>
</svg>