<svg width="19" height="19" viewBox="0 0 19 19" fill="none" xmlns="http://www.w3.org/2000/svg">
<path d="M9.30957 18.3818C14.082 18.3818 18.0283 14.4268 18.0283 9.6543C18.0283 4.89062 14.0732 0.926758 9.30078 0.926758C4.52832 0.926758 0.573242 4.89062 0.573242 9.6543C0.573242 14.4268 4.53711 18.3818 9.30957 18.3818ZM6.77832 5.10156C7.29688 3.79199 8.01758 2.85156 8.7998 2.56152V5.30371C8.07031 5.28613 7.40234 5.21582 6.77832 5.10156ZM9.81055 2.56152C10.584 2.85156 11.3047 3.79199 11.8232 5.10156C11.208 5.21582 10.5312 5.28613 9.81055 5.30371V2.56152ZM11.6562 2.80762C12.5967 3.13281 13.4492 3.63379 14.1699 4.29297C13.7744 4.5127 13.3262 4.69727 12.8252 4.85547C12.5088 4.03809 12.1133 3.34375 11.6562 2.80762ZM4.43164 4.29297C5.15234 3.64258 6.00488 3.13281 6.94531 2.80762C6.49707 3.34375 6.09277 4.03809 5.77637 4.85547C5.27539 4.69727 4.82715 4.5127 4.43164 4.29297ZM13.6602 9.14453C13.6162 7.92285 13.4404 6.78906 13.1416 5.78711C13.8008 5.58496 14.3896 5.33008 14.873 5.03125C15.8135 6.15625 16.4111 7.58008 16.5166 9.14453H13.6602ZM2.09375 9.14453C2.19922 7.58008 2.79688 6.15625 3.72852 5.03125C4.2207 5.33008 4.80078 5.58496 5.45996 5.78711C5.16992 6.78906 4.98535 7.92285 4.94141 9.14453H2.09375ZM9.81055 9.14453V6.31445C10.6279 6.28809 11.4102 6.19141 12.1396 6.04199C12.4121 6.98242 12.5791 8.03711 12.623 9.14453H9.81055ZM5.97852 9.14453C6.02246 8.03711 6.19824 6.98242 6.46191 6.04199C7.19141 6.19141 7.97363 6.28809 8.7998 6.31445V9.14453H5.97852ZM2.08496 10.1553H4.94141C4.97656 11.3945 5.16113 12.5547 5.45996 13.5654C4.80957 13.7676 4.23828 14.0137 3.75488 14.3125C2.80566 13.1699 2.19922 11.7373 2.08496 10.1553ZM5.97852 10.1553H8.7998V13.0381C7.97363 13.0645 7.19141 13.1523 6.46191 13.3105C6.18945 12.3613 6.01367 11.2803 5.97852 10.1553ZM9.81055 13.0381V10.1553H12.623C12.5879 11.2803 12.4121 12.3613 12.1396 13.3105C11.4102 13.1523 10.6279 13.0645 9.81055 13.0381ZM13.1416 13.5654C13.4404 12.5547 13.625 11.3945 13.6602 10.1553H16.5254C16.4199 11.7373 15.8135 13.1787 14.8643 14.3125C14.3721 14.0225 13.792 13.7676 13.1416 13.5654ZM6.77832 14.251C7.40234 14.1367 8.07031 14.0664 8.7998 14.0488V16.791C8.01758 16.501 7.29688 15.5605 6.77832 14.251ZM9.81055 14.0488C10.5312 14.0664 11.208 14.1367 11.8232 14.251C11.3047 15.5605 10.584 16.501 9.81055 16.791V14.0488ZM4.4668 15.042C4.85352 14.8311 5.28418 14.6465 5.77637 14.4971C6.08398 15.2881 6.4707 15.9561 6.90137 16.4922C5.9873 16.1758 5.16113 15.6748 4.4668 15.042ZM12.8252 14.4971C13.3174 14.6465 13.7568 14.8311 14.1523 15.0508C13.4404 15.6836 12.6143 16.1846 11.6914 16.501C12.1309 15.9648 12.5176 15.2881 12.8252 14.4971Z" fill="currentColor"/>
</svg>