<svg version="1.1" id="Layer_1" xmlns="http://www.w3.org/2000/svg" xmlns:xlink="http://www.w3.org/1999/xlink" x="0px" y="0px"
stroke="currentColor"
	 viewBox="0 0 24 24" style="enable-background:new 0 0 24 24;" xml:space="preserve">
<path class="st0" d="M22.8,9.1l-3.5-3c-0.2-0.2-0.5-0.2-0.6,0l-2.9,2.5l-3.5-2.5c-0.2-0.1-0.4-0.1-0.6,0L8.3,8.6L5.4,6.1
	C5.2,6,4.9,6,4.7,6.1l-3.5,3C1.1,9.2,1.1,9.4,1.1,9.5v5c0,0.3,0.2,0.5,0.5,0.5c0,0,0,0,0,0H6v2.5C6,17.7,6.3,18,6.5,18c0,0,0,0,0,0
	h10.9c0.3,0,0.5-0.2,0.5-0.5c0,0,0,0,0,0V15h4.5c0.3,0,0.5-0.2,0.5-0.5c0,0,0,0,0,0v-5C22.9,9.4,22.9,9.2,22.8,9.1z M2,14V9.7l3-2.6
	l2.4,2.1l-1.2,0.9C6.1,10.2,6,10.3,6,10.5V14H2z M11,17v-4h2v4H11z M17,17h-3v-4.5c0-0.3-0.2-0.5-0.5-0.5c0,0,0,0,0,0h-3
	c-0.3,0-0.5,0.2-0.5,0.5c0,0,0,0,0,0V17H7v-6.2l5-3.6l5,3.6V17z M22,14h-4v-3.5c0-0.2-0.1-0.3-0.2-0.4l-1.2-0.9L19,7.2l3,2.6V14z"/>
</svg>
