<svg width="15" height="15" viewBox="0 0 15 15" fill="none" xmlns="http://www.w3.org/2000/svg">
<path fill-rule="evenodd" clip-rule="evenodd" d="M9.8274 2.62743C9.99345 2.45551 10.1921 2.31839 10.4117 2.22405C10.6313 2.12971 10.8675 2.08006 11.1065 2.07798C11.3455 2.0759 11.5825 2.12145 11.8037 2.21195C12.0249 2.30246 12.2259 2.43611 12.3949 2.60512C12.5639 2.77413 12.6976 2.9751 12.7881 3.19631C12.8786 3.41753 12.9241 3.65455 12.9221 3.89355C12.92 4.13256 12.8703 4.36875 12.776 4.58836C12.6817 4.80797 12.5445 5.00659 12.3726 5.17263L9.6726 7.87263C9.33505 8.21008 8.8773 8.39965 8.4 8.39965C7.92271 8.39965 7.46496 8.21008 7.12741 7.87263C6.95766 7.70869 6.73032 7.61797 6.49434 7.62002C6.25837 7.62207 6.03264 7.71673 5.86577 7.88359C5.6989 8.05046 5.60425 8.27619 5.6022 8.51217C5.60015 8.74815 5.69086 8.97549 5.8548 9.14523C6.5299 9.82013 7.44541 10.1993 8.4 10.1993C9.3546 10.1993 10.2701 9.82013 10.9452 9.14523L13.6452 6.44523C14.301 5.76626 14.6638 4.85689 14.6556 3.91299C14.6474 2.96908 14.2688 2.06615 13.6014 1.39868C12.9339 0.731215 12.031 0.352607 11.087 0.344405C10.1431 0.336203 9.23377 0.699062 8.5548 1.35483L7.20481 2.70483C7.11885 2.78785 7.05028 2.88716 7.00311 2.99697C6.95595 3.10677 6.93112 3.22487 6.93008 3.34437C6.92904 3.46387 6.95181 3.58238 6.99707 3.69299C7.04232 3.8036 7.10915 3.90408 7.19365 3.98859C7.27815 4.07309 7.37864 4.13992 7.48925 4.18517C7.59985 4.23042 7.71836 4.2532 7.83787 4.25216C7.95737 4.25112 8.07546 4.22629 8.18527 4.17912C8.29507 4.13195 8.39438 4.06339 8.47741 3.97743L9.8274 2.62743ZM5.32741 7.12743C5.66496 6.78998 6.12271 6.60042 6.60001 6.60042C7.0773 6.60042 7.53505 6.78998 7.8726 7.12743C7.95563 7.21339 8.05494 7.28195 8.16474 7.32912C8.27454 7.37629 8.39264 7.40112 8.51214 7.40216C8.63165 7.40319 8.75016 7.38042 8.86076 7.33517C8.97137 7.28992 9.07186 7.22309 9.15636 7.13859C9.24086 7.05408 9.30769 6.9536 9.35294 6.84299C9.3982 6.73238 9.42097 6.61387 9.41993 6.49437C9.41889 6.37487 9.39406 6.25677 9.3469 6.14697C9.29973 6.03716 9.23116 5.93785 9.1452 5.85483C8.47011 5.17994 7.5546 4.8008 6.60001 4.8008C5.64541 4.8008 4.7299 5.17994 4.05481 5.85483L1.35481 8.55483C1.01097 8.88692 0.736713 9.28416 0.54804 9.72337C0.359368 10.1626 0.260057 10.635 0.255904 11.113C0.25175 11.591 0.342836 12.065 0.523847 12.5075C0.704858 12.9499 0.97217 13.3518 1.31018 13.6899C1.6482 14.0279 2.05014 14.2952 2.49257 14.4762C2.935 14.6572 3.40904 14.7483 3.88705 14.7441C4.36506 14.74 4.83745 14.6407 5.27666 14.452C5.71588 14.2633 6.11312 13.9891 6.44521 13.6452L7.7952 12.2952C7.88116 12.2122 7.94973 12.1129 7.9969 12.0031C8.04406 11.8933 8.06889 11.7752 8.06993 11.6557C8.07097 11.5362 8.0482 11.4177 8.00294 11.3071C7.95769 11.1965 7.89086 11.096 7.80636 11.0115C7.72186 10.927 7.62137 10.8601 7.51076 10.8149C7.40016 10.7696 7.28165 10.7469 7.16214 10.7479C7.04264 10.7489 6.92455 10.7738 6.81474 10.8209C6.70494 10.8681 6.60563 10.9367 6.5226 11.0226L5.17261 12.3726C5.00656 12.5445 4.80794 12.6817 4.58833 12.776C4.36873 12.8703 4.13253 12.92 3.89353 12.9221C3.65452 12.9242 3.4175 12.8786 3.19629 12.7881C2.97507 12.6976 2.7741 12.5639 2.60509 12.3949C2.43609 12.2259 2.30243 12.025 2.21193 11.8037C2.12142 11.5825 2.07588 11.3455 2.07795 11.1065C2.08003 10.8675 2.12969 10.6313 2.22402 10.4117C2.31836 10.1921 2.45549 9.99348 2.62741 9.82743L5.32741 7.12743Z" fill="#5EABC4"/>
</svg>
