<svg width="16" height="16" viewBox="0 0 16 16" fill="none" xmlns="http://www.w3.org/2000/svg">
<path d="M8.60001 15.9C8.50001 15.9 8.50001 15.9 8.40001 15.9C8.00001 15.8 7.70001 15.4 7.70001 15V8.3H1.00001C0.600007 8.3 0.200007 8 0.100007 7.6C7.32392e-06 7.2 0.200007 6.8 0.600007 6.6L14.6 0.199999C14.9 -9.0152e-07 15.3 0.0999991 15.6 0.399999C15.9 0.699999 15.9 1.1 15.8 1.4L9.40001 15.4C9.30001 15.7 9.00001 15.9 8.60001 15.9ZM5.20001 6.5H8.70001C9.20001 6.5 9.60001 6.9 9.60001 7.4V10.9L13.3 2.9L5.20001 6.5Z" fill="#7BA5C5"/>
</svg>
