<svg width="14" height="16" viewBox="0 0 14 16" fill="none" xmlns="http://www.w3.org/2000/svg">
<path d="M13.4966 4.3C12.8966 3 11.9966 1.9 10.8966 1.2C8.59657 -0.4 5.39657 -0.4 3.09657 1.2C1.89657 1.9 1.09657 3 0.496575 4.3C-0.00342545 5.6 -0.103425 7 0.0965745 8.4C0.696575 11.8 4.79657 14.9 5.29657 15.3C5.49657 15.5 5.79657 15.7 5.99657 15.8C6.39657 15.9 6.69657 16 6.99657 16C7.29657 16 7.59657 15.9 7.89657 15.8C8.19657 15.7 8.39657 15.5 8.59657 15.3C9.09657 14.9 13.1966 11.7 13.7966 8.4C14.0966 7 13.9966 5.6 13.4966 4.3ZM12.0966 8.1C11.6966 10.4 8.69657 13.1 7.49657 14L7.39657 14.1C7.29657 14.2 7.29657 14.2 7.19657 14.2C7.09657 14.3 6.89657 14.3 6.69657 14.2C6.59657 14.2 6.59657 14.1 6.49657 14.1L6.39657 14C5.29657 13.2 2.29657 10.5 1.79657 8.1C1.69657 7 1.79657 6 2.19657 5C2.59657 4 3.29657 3.2 4.09657 2.6C4.99657 2.1 5.99657 1.8 6.99657 1.8C7.99657 1.8 8.99657 2.1 9.89657 2.7C10.7966 3.3 11.3966 4.1 11.7966 5.1C12.1966 6 12.2966 7 12.0966 8.1Z" fill="#7BA5C5"/>
<path d="M4.69657 4.80001C4.09657 5.40001 3.79657 6.20001 3.79657 7.00001C3.79657 7.90001 4.09657 8.70001 4.69657 9.30001C5.29657 9.90001 6.09657 10.2 6.99657 10.2C7.89657 10.2 8.69657 9.90001 9.29657 9.30001C9.89657 8.70001 10.1966 7.90001 10.1966 7.00001C10.1966 6.10001 9.89657 5.30001 9.29657 4.70001C7.99657 3.50001 5.89657 3.50001 4.69657 4.80001ZM7.99657 8.00001C7.49657 8.60001 6.49657 8.60001 5.99657 8.00001C5.79657 7.80001 5.59657 7.40001 5.59657 7.00001C5.59657 6.60001 5.69657 6.30001 5.99657 6.00001C6.29657 5.70001 6.59657 5.60001 6.99657 5.60001C7.39657 5.60001 7.69657 5.80001 7.99657 6.00001C8.29657 6.30001 8.39657 6.60001 8.39657 7.00001C8.39657 7.40001 8.19657 7.80001 7.99657 8.00001Z" fill="#7BA5C5"/>
</svg>
