<svg width="48" height="52" viewBox="0 0 48 52" fill="none" xmlns="http://www.w3.org/2000/svg">
<g filter="url(#filter0_d)">
<path d="M36.8594 14.6C35.7594 12 34.0594 9.9 31.6594 8.3C29.4594 6.8 26.7594 6 23.9594 6C21.1594 6 18.4594 6.8 16.1594 8.4C13.8594 9.9 12.0594 12.1 11.0594 14.6C9.95938 17.1 9.75938 19.9 10.2594 22.7C11.5594 29.8 21.7594 38 23.9594 38C26.1594 38 36.3594 29.8 37.6594 22.7C38.2594 20 37.9594 17.2 36.8594 14.6ZM26.7594 22.8C25.2594 24.3 22.5594 24.3 21.0594 22.8C20.3594 22 19.9594 21 19.9594 20C19.9594 19 20.3594 17.9 21.1594 17.2C21.9594 16.5 22.8594 16 23.9594 16C25.0594 16 26.0594 16.4 26.7594 17.2C27.5594 18 27.9594 19 27.9594 20C27.9594 21 27.5594 22 26.7594 22.8Z" fill="white"/>
</g>
<defs>
<filter id="filter0_d" x="0" y="0" width="47.9632" height="52" filterUnits="userSpaceOnUse" color-interpolation-filters="sRGB">
<feFlood flood-opacity="0" result="BackgroundImageFix"/>
<feColorMatrix in="SourceAlpha" type="matrix" values="0 0 0 0 0 0 0 0 0 0 0 0 0 0 0 0 0 0 127 0" result="hardAlpha"/>
<feOffset dy="4"/>
<feGaussianBlur stdDeviation="5"/>
<feColorMatrix type="matrix" values="0 0 0 0 0 0 0 0 0 0 0 0 0 0 0 0 0 0 0.2 0"/>
<feBlend mode="normal" in2="BackgroundImageFix" result="effect1_dropShadow"/>
<feBlend mode="normal" in="SourceGraphic" in2="effect1_dropShadow" result="shape"/>
</filter>
</defs>
</svg>
