<svg width="41" height="41" viewBox="0 0 41 41" fill="none" stroke="currentColor" xmlns="http://www.w3.org/2000/svg">
<rect x="0.876953" y="0.563721" width="40" height="40" rx="4" fill="#BD907A"/>
<g clip-path="url(#clip0)">
<path fill-rule="evenodd" clip-rule="evenodd" d="M24.354 25.9537C23.1983 26.7752 21.7891 27.1608 20.3762 27.0423C18.9633 26.9237 17.6381 26.3087 16.6354 25.3062C15.6328 24.3037 15.0176 22.9785 14.8989 21.5656C14.7802 20.1527 15.1657 18.7435 15.987 17.5877L24.354 25.9557V25.9537ZM25.768 24.5397L17.401 16.1737C18.5567 15.3517 19.9662 14.9657 21.3794 15.0841C22.7927 15.2025 24.1183 15.8177 25.1212 16.8205C26.124 17.8233 26.7392 19.149 26.8576 20.5622C26.976 21.9755 26.5899 23.385 25.768 24.5407V24.5397ZM28.877 21.0637C28.877 23.1855 28.0341 25.2203 26.5338 26.7206C25.0335 28.2209 22.9987 29.0637 20.877 29.0637C18.7552 29.0637 16.7204 28.2209 15.2201 26.7206C13.7198 25.2203 12.877 23.1855 12.877 21.0637C12.877 18.942 13.7198 16.9072 15.2201 15.4069C16.7204 13.9066 18.7552 13.0637 20.877 13.0637C22.9987 13.0637 25.0335 13.9066 26.5338 15.4069C28.0341 16.9072 28.877 18.942 28.877 21.0637Z" fill="white"/>
</g>
<defs>
<clipPath id="clip0">
<rect width="21.8182" height="21.8182" fill="white" transform="translate(9.96777 9.65466)"/>
</clipPath>
</defs>
</svg>
