<svg width="18" height="19" viewBox="0 0 18 19" fill="currentColor" xmlns="http://www.w3.org/2000/svg">
<path d="M12.2274 3.72747C12.3935 3.55555 12.5921 3.41842 12.8117 3.32408C13.0313 3.22975 13.2675 3.18009 13.5065 3.17802C13.7455 3.17594 13.9825 3.22148 14.2037 3.31199C14.4249 3.40249 14.6259 3.53615 14.7949 3.70516C14.9639 3.87416 15.0976 4.07514 15.1881 4.29635C15.2786 4.51756 15.3241 4.75459 15.3221 4.99359C15.32 5.23259 15.2703 5.46879 15.176 5.6884C15.0817 5.908 14.9445 6.10662 14.7726 6.27267L14.0589 6.98637L11.5137 4.44117L12.2274 3.72747ZM10.2411 5.71377L2.70001 13.2549V15.8001H5.24521L12.7872 8.25897L10.2402 5.71377H10.2411Z" />
</svg>
