<svg viewBox="0 0 19 19" fill="none" xmlns="http://www.w3.org/2000/svg">
<path fill-rule="evenodd" clip-rule="evenodd" d="M4.87756 6.78781C5.11394 6.38606 5.40067 6.01806 5.72945 5.69212L2.93633 2.62964C2.23354 3.30097 1.63441 4.07945 1.16309 4.93756L4.87756 6.78781Z" fill="#404040"/>
<path fill-rule="evenodd" clip-rule="evenodd" d="M11.7236 4.62579C12.1467 4.81946 12.5398 5.06675 12.8949 5.3596L15.696 2.30159C14.9582 1.66544 14.1217 1.14037 13.2136 0.75293L11.7236 4.62579Z" fill="#404040"/>
<path fill-rule="evenodd" clip-rule="evenodd" d="M18.1381 5.54883L14.4258 7.3994C14.6031 7.81328 14.7291 8.25271 14.7976 8.71115L18.9272 8.32141C18.8053 7.34348 18.5346 6.41142 18.1381 5.54883Z" fill="#404040"/>
<mask id="mask0_2224:51851" style="mask-type:alpha" maskUnits="userSpaceOnUse" x="0" y="2" width="18" height="10">
<path fill-rule="evenodd" clip-rule="evenodd" d="M0 2.70386H2.93405H17.8708V11.7926H0V2.70386Z" fill="white"/>
</mask>
<g mask="url(#mask0_2224:51851)">
<path fill-rule="evenodd" clip-rule="evenodd" d="M14.1606 6.85665L17.8725 5.00662C17.4125 4.152 16.8263 3.37603 16.1378 2.70361L13.3369 5.76096C13.6558 6.08843 13.9333 6.45643 14.1606 6.85665Z" fill="#404040"/>
<path fill-rule="evenodd" clip-rule="evenodd" d="M4.13801 9.49795C4.13801 9.41449 4.14096 9.33093 4.14456 9.24792L0.0139178 8.87817C0.00102863 9.08298 -0.00683594 9.28953 -0.00683594 9.49795C-0.00683594 10.2901 0.0914711 11.0598 0.274322 11.7954L4.26373 10.651C4.18203 10.2794 4.13801 9.8939 4.13801 9.49795Z" fill="#404040"/>
</g>
<path fill-rule="evenodd" clip-rule="evenodd" d="M13.6392 12.8896C13.3455 13.2469 13.0068 13.5655 12.6318 13.8373L14.8127 17.3683C15.6221 16.82 16.3427 16.1501 16.9483 15.3849L13.6392 12.8896Z" fill="#404040"/>
<path fill-rule="evenodd" clip-rule="evenodd" d="M14.8552 9.50052C14.8552 9.89157 14.8131 10.2728 14.7324 10.6401L18.7213 11.7863C18.903 11.0538 19 10.288 19 9.50052C19 9.30489 18.9935 9.11046 18.9815 8.91724L14.8514 9.30719C14.8538 9.37185 14.8552 9.43586 14.8552 9.50052Z" fill="#404040"/>
<path fill-rule="evenodd" clip-rule="evenodd" d="M5.42149 12.9746L2.12012 15.4837C2.7341 16.2398 3.46135 16.8988 4.2761 17.4371L6.45644 13.9097C6.07239 13.6441 5.72427 13.3293 5.42149 12.9746Z" fill="#404040"/>
<path fill-rule="evenodd" clip-rule="evenodd" d="M4.20662 8.65408C4.28046 8.18745 4.41569 7.74113 4.60225 7.32322L0.891382 5.47461C0.481441 6.34703 0.200174 7.29165 0.0722656 8.28324L4.20662 8.65408Z" fill="#404040"/>
<path fill-rule="evenodd" clip-rule="evenodd" d="M14.306 17.6992L12.1284 14.1726C11.7328 14.396 11.3065 14.5714 10.8574 14.6892L11.626 18.7682C12.5823 18.5485 13.4836 18.1839 14.306 17.6992Z" fill="#404040"/>
<path fill-rule="evenodd" clip-rule="evenodd" d="M14.5711 11.2063C14.4266 11.6307 14.2312 12.0309 13.9912 12.4002L17.3031 14.8982C17.841 14.125 18.2664 13.2687 18.5566 12.3518L14.5711 11.2063Z" fill="#404040"/>
<path fill-rule="evenodd" clip-rule="evenodd" d="M10.2672 14.7971C10.0153 14.8336 9.75694 14.8532 9.49435 14.8532C9.28343 14.8532 9.07501 14.8402 8.87064 14.8163L8.10254 18.8958C8.55705 18.9624 9.0216 18.9978 9.49435 18.9978C10.0189 18.9978 10.5336 18.9546 11.0348 18.8727L10.2672 14.7971Z" fill="#404040"/>
<path fill-rule="evenodd" clip-rule="evenodd" d="M9.83789 4.15209C10.2982 4.18169 10.7425 4.26896 11.1638 4.40812L12.6535 0.536133C11.7672 0.223189 10.8216 0.0380439 9.83789 0.00341797V4.15209Z" fill="#404040"/>
<path fill-rule="evenodd" clip-rule="evenodd" d="M8.28422 14.7195C7.81977 14.6111 7.37837 14.4426 6.96898 14.2222L4.78711 17.7511C5.62654 18.2315 6.54418 18.5871 7.51688 18.7945L8.28422 14.7195Z" fill="#404040"/>
<path fill-rule="evenodd" clip-rule="evenodd" d="M7.88471 4.38908C8.31486 4.25298 8.76882 4.16997 9.23818 4.14801V0C8.24124 0.0266521 7.28318 0.208192 6.38477 0.519717L7.88471 4.38908Z" fill="#404040"/>
<path fill-rule="evenodd" clip-rule="evenodd" d="M5.05694 12.5026C4.79392 12.1139 4.57906 11.688 4.42494 11.2356L0.438477 12.3795C0.740388 13.3303 1.18769 14.2162 1.75524 15.0117L5.05694 12.5026Z" fill="#404040"/>
<path fill-rule="evenodd" clip-rule="evenodd" d="M6.17888 5.29412C6.52907 5.01657 6.91454 4.78303 7.32798 4.59887L5.82879 0.731689C4.93584 1.10646 4.11323 1.61405 3.38379 2.22912L6.17888 5.29412Z" fill="#404040"/>
</svg>
