<svg width="11" height="12" viewBox="0 0 11 12" fill="none" xmlns="http://www.w3.org/2000/svg">
<path d="M10.0855 3.225C9.67248 2.25 9.03414 1.4625 8.13296 0.8625C7.30687 0.3 6.29304 0 5.24166 0C4.19028 0 3.17644 0.3 2.31281 0.9C1.44917 1.4625 0.773284 2.2875 0.39779 3.225C-0.0152526 4.1625 -0.0903513 5.2125 0.0973955 6.2625C0.585537 8.925 4.41557 12 5.24166 12C6.06774 12 9.89778 8.925 10.3859 6.2625C10.6112 5.25 10.4986 4.2 10.0855 3.225ZM6.29304 6.3C5.7298 6.8625 4.71597 6.8625 4.15273 6.3C3.88988 6 3.73968 5.625 3.73968 5.25C3.73968 4.875 3.88988 4.4625 4.19028 4.2C4.49067 3.9375 4.82862 3.75 5.24166 3.75C5.6547 3.75 6.03019 3.9 6.29304 4.2C6.59343 4.5 6.74363 4.875 6.74363 5.25C6.74363 5.625 6.59343 6 6.29304 6.3Z" fill="#DD9B77"/>
</svg>
