<svg width="44" height="43" viewBox="0 0 44 43" fill="none" xmlns="http://www.w3.org/2000/svg">
<g filter="url(#filter0_d)">
<g style="mix-blend-mode:multiply">
<path d="M22 41C33.0457 41 42 32.0457 42 21C42 9.9543 33.0457 1 22 1C10.9543 1 2 9.9543 2 21C2 32.0457 10.9543 41 22 41Z" fill="#A6ADBB"/>
<path d="M41.8879 21C41.8879 31.9838 32.9838 40.8879 22 40.8879C11.0162 40.8879 2.11213 31.9838 2.11213 21C2.11213 10.0162 11.0162 1.11213 22 1.11213C32.9838 1.11213 41.8879 10.0162 41.8879 21Z" stroke="white" stroke-opacity="0.1" stroke-width="0.224266"/>
</g>
<path d="M21.9475 8.18958L15.5649 11.2916L21.9475 14.283L28.3663 11.2916L21.9475 8.18958Z" stroke="white" stroke-linejoin="round"/>
<path d="M21.9661 14.2762L15.5664 11.2909V18.6619L21.9661 21.6341V14.2762Z" stroke="white" stroke-linejoin="round"/>
<path d="M21.966 14.2762L28.3657 11.2909V18.6619L21.966 21.6341V14.2762Z" stroke="white" stroke-linejoin="round"/>
<path d="M21.9651 21.7457L28.3476 24.7371L34.7664 21.7457L28.3476 18.6437" stroke="white" stroke-linejoin="round"/>
<path d="M28.3663 24.7301L21.9666 21.7448V29.1158L28.3663 32.0879V24.7301Z" stroke="white" stroke-linejoin="round"/>
<path d="M28.3659 24.7301L34.7656 21.7448V29.1158L28.3659 32.0879V24.7301Z" stroke="white" stroke-linejoin="round"/>
<path d="M15.5461 18.6437L9.16357 21.7457L15.5461 24.7371L21.9649 21.7457" stroke="white" stroke-linejoin="round"/>
<path d="M15.5647 24.7301L9.16504 21.7448V29.1158L15.5647 32.0879V24.7301Z" stroke="white" stroke-linejoin="round"/>
<path d="M15.5649 24.7301L21.9646 21.7448V29.1158L15.5649 32.0879V24.7301Z" stroke="white" stroke-linejoin="round"/>
</g>
<defs>
<filter id="filter0_d" x="0.654401" y="0.102934" width="42.6912" height="42.6912" filterUnits="userSpaceOnUse" color-interpolation-filters="sRGB">
<feFlood flood-opacity="0" result="BackgroundImageFix"/>
<feColorMatrix in="SourceAlpha" type="matrix" values="0 0 0 0 0 0 0 0 0 0 0 0 0 0 0 0 0 0 127 0" result="hardAlpha"/>
<feOffset dy="0.448533"/>
<feGaussianBlur stdDeviation="0.672799"/>
<feColorMatrix type="matrix" values="0 0 0 0 0.158312 0 0 0 0 0.186739 0 0 0 0 0.191064 0 0 0 0.2 0"/>
<feBlend mode="normal" in2="BackgroundImageFix" result="effect1_dropShadow"/>
<feBlend mode="normal" in="SourceGraphic" in2="effect1_dropShadow" result="shape"/>
</filter>
</defs>
</svg>
