<svg width="40" height="40" viewBox="0 0 40 40" fill="none" xmlns="http://www.w3.org/2000/svg">
<path d="M20 40C31.0457 40 40 31.0457 40 20C40 8.95431 31.0457 0 20 0C8.95431 0 0 8.95431 0 20C0 31.0457 8.95431 40 20 40Z" fill="#0C3625"/>
<path d="M39.7476 20C39.7476 30.9063 30.9063 39.7476 20 39.7476C9.09371 39.7476 0.252405 30.9063 0.252405 20C0.252405 9.09371 9.09371 0.252405 20 0.252405C30.9063 0.252405 39.7476 9.09371 39.7476 20Z" stroke="white" stroke-opacity="0.1" stroke-width="0.50481"/>
<path d="M16.8981 10.3185V13.0826C16.8981 13.3312 16.6965 13.5328 16.4479 13.5328H11.2768C11.0282 13.5328 10.8267 13.3312 10.8267 13.0826V10.3185" stroke="white" stroke-linecap="round"/>
<circle cx="13.8622" cy="8.38283" r="1.07143" stroke="white"/>
<path d="M29.3207 10.3186V13.0827C29.3207 13.3313 29.1191 13.5329 28.8705 13.5329H23.6994C23.4508 13.5329 23.2493 13.3313 23.2493 13.0827V10.3186" stroke="white" stroke-linecap="round"/>
<circle cx="26.2851" cy="8.38307" r="1.07143" stroke="white"/>
<path d="M16.8978 27.7611V30.5252C16.8978 30.7738 16.6963 30.9754 16.4477 30.9754H11.2766C11.028 30.9754 10.8264 30.7738 10.8264 30.5252V27.7611" stroke="white" stroke-linecap="round"/>
<circle cx="13.8622" cy="25.8255" r="1.07143" stroke="white"/>
<path d="M29.3205 27.7611V30.5252C29.3205 30.7738 29.1189 30.9754 28.8703 30.9754H23.6992C23.4506 30.9754 23.249 30.7738 23.249 30.5252V27.7611" stroke="white" stroke-linecap="round"/>
<circle cx="26.2848" cy="25.8255" r="1.07143" stroke="white"/>
<path d="M34.3754 19.0398V21.8039C34.3754 22.0525 34.1738 22.2541 33.9252 22.2541H28.7541C28.5055 22.2541 28.304 22.0525 28.304 21.8039V19.0398" stroke="white" stroke-linecap="round"/>
<circle cx="31.3397" cy="17.1043" r="1.07143" stroke="white"/>
<path d="M11.7323 19.0397V21.8038C11.7323 22.0524 11.5308 22.254 11.2821 22.254H6.11106C5.86244 22.254 5.66089 22.0524 5.66089 21.8038V19.0397" stroke="white" stroke-linecap="round"/>
<circle cx="8.69667" cy="17.104" r="1.07143" stroke="white"/>
<path d="M16.9644 20.0001H23.0358" stroke="white" stroke-linecap="round"/>
<path d="M18.3027 22.5167L21.6978 17.4833" stroke="white" stroke-linecap="round"/>
<path d="M21.7415 22.4868L18.259 17.5134" stroke="white" stroke-linecap="round"/>
</svg>
