<svg width="40" height="40" viewBox="0 0 40 40" fill="none" xmlns="http://www.w3.org/2000/svg">
<path d="M20 40C31.0457 40 40 31.0457 40 20C40 8.95431 31.0457 0 20 0C8.95431 0 0 8.95431 0 20C0 31.0457 8.95431 40 20 40Z" fill="#E8614E"/>
<path d="M39.8118 20C39.8118 30.9418 30.9418 39.8118 20 39.8118C9.05825 39.8118 0.188209 30.9418 0.188209 20C0.188209 9.05825 9.05825 0.188209 20 0.188209C30.9418 0.188209 39.8118 9.05825 39.8118 20Z" stroke="white" stroke-opacity="0.1" stroke-width="0.376418"/>
<path d="M18.0874 14.019C17.8233 14.019 17.6091 14.2332 17.6091 14.4973V17.1556C17.6091 17.4042 17.4076 17.6057 17.159 17.6057H14.5007C14.2366 17.6057 14.0225 17.8198 14.0225 18.084V21.9097C14.0225 22.1739 14.2366 22.388 14.5007 22.388H17.159C17.4076 22.388 17.6091 22.5895 17.6091 22.8381V25.4964C17.6091 25.7605 17.8233 25.9747 18.0874 25.9747H21.9132C22.1773 25.9747 22.3914 25.7605 22.3914 25.4964V22.8381C22.3914 22.5895 22.5929 22.388 22.8416 22.388H25.4998C25.764 22.388 25.9781 22.1739 25.9781 21.9097V18.084C25.9781 17.8198 25.764 17.6057 25.4998 17.6057H22.8416C22.5929 17.6057 22.3914 17.4042 22.3914 17.1556V14.4973C22.3914 14.2332 22.1773 14.019 21.9132 14.019H18.0874Z" stroke="white"/>
<path d="M20.0002 7.25208L31.0376 13.6245V26.3694L20.0002 32.7418L8.96286 26.3694V13.6245L20.0002 7.25208Z" stroke="white"/>
<circle cx="20.0004" cy="7.85697" r="2.15201" fill="#DE5F4D" stroke="white"/>
<circle cx="30.5214" cy="14.1724" r="2.15201" fill="#DE5F4D" stroke="white"/>
<circle cx="30.5214" cy="25.8388" r="2.15201" fill="#DE5F4D" stroke="white"/>
<circle cx="9.47965" cy="14.1724" r="2.15201" fill="#DE5F4D" stroke="white"/>
<circle cx="9.47965" cy="25.8388" r="2.15201" fill="#DE5F4D" stroke="white"/>
<circle cx="19.9999" cy="32.1399" r="2.15201" fill="#DE5F4D" stroke="white"/>
</svg>
