<svg width="40" height="40" viewBox="0 0 40 40" fill="none" xmlns="http://www.w3.org/2000/svg">
<path d="M20 40C31.0457 40 40 31.0457 40 20C40 8.95431 31.0457 0 20 0C8.95431 0 0 8.95431 0 20C0 31.0457 8.95431 40 20 40Z" fill="#09425B"/>
<path d="M39.7479 20C39.7479 30.9065 30.9065 39.7479 20 39.7479C9.09354 39.7479 0.252095 30.9065 0.252095 20C0.252095 9.09354 9.09354 0.252095 20 0.252095C30.9065 0.252095 39.7479 9.09354 39.7479 20Z" stroke="white" stroke-opacity="0.1" stroke-width="0.504191"/>
<path d="M8.6936 26.1312C9.40066 26.3107 10.038 26.7504 10.4036 27.4504C11.3866 29.3331 14.3359 29.3331 15.3189 27.4504C16.302 25.5678 19.2513 25.5678 20.2343 27.4504C21.2174 29.3331 24.1666 29.3331 25.1497 27.4504C26.1328 25.5678 29.082 25.5678 30.0651 27.4504C30.3477 27.9916 30.7927 28.3772 31.3068 28.6073" stroke="white" stroke-linecap="round"/>
<path d="M8.6936 21.1643C9.40066 21.3438 10.038 21.7835 10.4036 22.4835C11.3866 24.3662 14.3359 24.3662 15.3189 22.4835C16.302 20.6009 19.2513 20.6009 20.2343 22.4835C21.2174 24.3662 24.1666 24.3662 25.1497 22.4835C26.1328 20.6009 29.082 20.6009 30.0651 22.4835C30.3477 23.0247 30.7927 23.4103 31.3068 23.6403" stroke="white" stroke-linecap="round"/>
<path d="M8.6936 16.1975C9.40066 16.377 10.038 16.8167 10.4036 17.5167C11.3866 19.3994 14.3359 19.3994 15.3189 17.5167C16.302 15.6341 19.2513 15.6341 20.2343 17.5167C21.2174 19.3994 24.1666 19.3994 25.1497 17.5167C26.1328 15.6341 29.082 15.6341 30.0651 17.5167C30.3477 18.0579 30.7927 18.4435 31.3068 18.6735" stroke="white" stroke-linecap="round"/>
<path d="M8.6936 11.2306C9.40066 11.41 10.038 11.8498 10.4036 12.5498C11.3866 14.4325 14.3359 14.4325 15.3189 12.5498C16.302 10.6671 19.2513 10.6671 20.2343 12.5498C21.2174 14.4325 24.1666 14.4325 25.1497 12.5498C26.1328 10.6671 29.082 10.6671 30.0651 12.5498C30.3477 13.091 30.7927 13.4766 31.3068 13.7066" stroke="white" stroke-linecap="round"/>
</svg>
