<svg width="40" height="40" viewBox="0 0 40 40" fill="none" xmlns="http://www.w3.org/2000/svg">
<path d="M20 40C31.0457 40 40 31.0457 40 20C40 8.95431 31.0457 0 20 0C8.95431 0 0 8.95431 0 20C0 31.0457 8.95431 40 20 40Z" fill="#E48E42"/>
<path d="M39.7479 20C39.7479 30.9065 30.9065 39.7479 20 39.7479C9.09352 39.7479 0.252063 30.9065 0.252063 20C0.252063 9.09352 9.09352 0.252063 20 0.252063C30.9065 0.252063 39.7479 9.09352 39.7479 20Z" stroke="white" stroke-opacity="0.1" stroke-width="0.504127"/>
<path d="M9.90894 15.514C9.90894 15.0167 10.312 14.6136 10.8093 14.6136H19.1946V21.0422H10.8093C10.312 21.0422 9.90894 20.6391 9.90894 20.1419V15.514Z" stroke="white"/>
<path d="M5.81958 17.8278L9.53354 17.8278" stroke="white" stroke-linecap="round"/>
<path d="M28.7188 14.2195C29.6572 14.2195 30.5573 14.5997 31.2209 15.2764C31.8845 15.9531 32.2573 16.8709 32.2573 17.828C32.2573 18.785 31.8845 19.7028 31.2209 20.3795C30.5573 21.0562 29.6572 21.4364 28.7188 21.4364L28.7188 14.2195Z" stroke="white"/>
<path d="M12.2305 21.0424H16.8733V30.6237C16.8733 31.9058 15.834 32.9452 14.5519 32.9452V32.9452C13.2698 32.9452 12.2305 31.9058 12.2305 30.6237V21.0424Z" stroke="white"/>
<path d="M19.1951 15.0977C19.1951 14.8107 19.3319 14.5409 19.5636 14.3713L27.2867 8.717C27.8815 8.28155 28.7189 8.70632 28.7189 9.44347V26.2121C28.7189 26.9493 27.8815 27.3741 27.2867 26.9386L19.5636 21.2843C19.3319 21.1148 19.1951 20.8449 19.1951 20.5579V15.0977Z" stroke="white"/>
</svg>
