<svg width="40" height="40" viewBox="0 0 40 40" fill="none" xmlns="http://www.w3.org/2000/svg">
<path d="M20 40C31.0457 40 40 31.0457 40 20C40 8.95431 31.0457 0 20 0C8.95431 0 0 8.95431 0 20C0 31.0457 8.95431 40 20 40Z" fill="#0862AC"/>
<path d="M39.7479 20C39.7479 30.9064 30.9064 39.7479 20 39.7479C9.09355 39.7479 0.252131 30.9064 0.252131 20C0.252131 9.09355 9.09355 0.252131 20 0.252131C30.9064 0.252131 39.7479 9.09355 39.7479 20Z" stroke="white" stroke-opacity="0.1" stroke-width="0.504263"/>
<path d="M21.8469 13.1554V11.2869C21.8469 10.0438 22.8547 9.03601 24.0978 9.03601H29.3824" stroke="white" stroke-linecap="round"/>
<path d="M24.2109 13.3189V12.3321C24.2109 11.8349 24.614 11.4318 25.1113 11.4318H29.3826" stroke="white" stroke-linecap="round"/>
<rect x="20.6311" y="13.7169" width="4.79531" height="2.05513" rx="0.450173" stroke="white"/>
<path d="M22.0339 17.8427L22.0339 21.6104" stroke="white" stroke-linecap="round"/>
<path d="M24.1716 17.8427L24.1716 19.3829" stroke="white" stroke-linecap="round"/>
<path d="M24.2109 21.1821L24.2109 22.0384" stroke="white" stroke-linecap="round"/>
<path d="M10.7947 26.898L13.7301 24.6765C14.4552 24.1278 15.3609 23.8737 16.2656 23.9652L20.5458 24.3978C20.7372 24.4172 20.9227 24.4804 21.0863 24.5816V24.5816C21.5681 24.8797 21.6852 25.5337 21.3327 25.9773V25.9773C21.1961 26.1492 21.0039 26.2683 20.7891 26.3141L19.431 26.6035C18.9632 26.7032 18.4842 26.7403 18.0066 26.7139L16.4193 26.6261" stroke="white" stroke-linecap="round"/>
<path d="M21.9606 25.0037L25.1986 24.3561C25.3928 24.3173 25.5932 24.3225 25.7851 24.3713V24.3713C26.6776 24.5983 26.9619 25.7253 26.2838 26.3485L26.0773 26.5383C25.9975 26.6116 25.9115 26.6779 25.8202 26.7364L21.7409 29.3497C20.5381 30.1203 19.1091 30.4594 17.6883 30.3114L14.4038 29.9694" stroke="white" stroke-linecap="round"/>
<rect x="8.87744" y="28.8073" width="2.97444" height="4.63936" rx="0.450173" transform="rotate(-45.183 8.87744 28.8073)" stroke="white"/>
</svg>
