<svg width="20" height="19" viewBox="0 0 20 19" fill="none" xmlns="http://www.w3.org/2000/svg">
<path d="M5.46191 18.3662C5.80469 18.3662 6.05957 18.1904 6.47266 17.8037L9.64551 14.9033L15.5869 14.9121C18.2061 14.9209 19.6123 13.4619 19.6123 10.8867V4.1543C19.6123 1.5791 18.2061 0.128906 15.5869 0.128906H4.2666C1.64746 0.128906 0.241211 1.57031 0.241211 4.1543V10.8867C0.241211 13.4707 1.64746 14.9121 4.2666 14.9033H4.67969V17.4609C4.67969 18.0059 4.96094 18.3662 5.46191 18.3662ZM5.68164 6.97559C5.68164 5.91211 6.49902 5.17383 7.5625 5.17383C8.72266 5.17383 9.50488 6.09668 9.50488 7.30078C9.50488 9.55957 7.69434 10.6318 6.79785 10.6318C6.54297 10.6318 6.3584 10.4473 6.3584 10.2188C6.3584 10.0078 6.44629 9.86719 6.78906 9.77051C7.36914 9.6123 8.03711 9.15527 8.37109 8.42578H8.29199C8.06348 8.71582 7.69434 8.77734 7.3252 8.77734C6.32324 8.77734 5.68164 7.98633 5.68164 6.97559ZM10.4805 6.97559C10.4805 5.91211 11.2979 5.17383 12.3613 5.17383C13.5215 5.17383 14.3037 6.09668 14.3037 7.30078C14.3037 9.55957 12.4932 10.6318 11.5967 10.6318C11.3418 10.6318 11.1572 10.4473 11.1572 10.2188C11.1572 10.0078 11.2451 9.86719 11.5879 9.77051C12.168 9.6123 12.8359 9.15527 13.1699 8.42578H13.0908C12.8623 8.71582 12.4932 8.77734 12.124 8.77734C11.1221 8.77734 10.4805 7.98633 10.4805 6.97559Z" fill="currentColor"/>
</svg>