<svg
                
                viewBox="0 0 56 56"
                fill="none"
                xmlns="http://www.w3.org/2000/svg"
              >
                <rect
                  width="4.55639"
                  height="8.2015"
                  rx="2.26383"
                  transform="matrix(0.70265 0.711536 -0.70265 0.711536 31.6125 20.9491)"
                  fill="#255565"
                />
                <rect
                  x="6.16809"
                  y="14.9257"
                  width="4.52768"
                  height="8.25281"
                  rx="2.26383"
                  fill="#255565"
                />
                <rect
                  x="41.217"
                  y="45.8315"
                  width="4.58484"
                  height="8.14978"
                  rx="2.26383"
                  transform="rotate(90 41.217 45.8315)"
                  fill="#255565"
                />
                <path
                  d="M45.6833 48.207C47.1056 36.7535 43.9766 26.3412 36.9846 19.2608C29.9925 12.1804 19.7103 9.01175 8.39974 10.4521"
                  stroke="currentColor"
                  stroke-width="4.52766"
                  stroke-linecap="round"
                  stroke-linejoin="round"
                />
                <path
                  d="M7.59237 41.3437C9.66215 39.4556 23.3386 33.8637 23.3386 33.8637C23.3386 33.8637 16.4118 47.0497 14.3404 48.936C12.2634 50.7638 9.12303 50.5688 7.2822 48.4976C5.44137 46.4265 5.57937 43.2435 7.59237 41.3437Z"
                  fill="#255565"
                />
              </svg>