<svg width="41" height="41" viewBox="0 0 41 41" fill="none" stroke="currentColor" xmlns="http://www.w3.org/2000/svg">
<rect x="0.876953" y="0.563721" width="40" height="40" rx="4" fill="#8C5C45"/>
<path d="M12.877 20.8124C12.877 20.6154 12.9158 20.4203 12.9911 20.2384C13.0665 20.0564 13.177 19.891 13.3163 19.7517C13.4556 19.6124 13.6209 19.5019 13.8029 19.4266C13.9849 19.3512 14.18 19.3124 14.377 19.3124C14.5739 19.3124 14.769 19.3512 14.951 19.4266C15.133 19.5019 15.2983 19.6124 15.4376 19.7517C15.5769 19.891 15.6874 20.0564 15.7628 20.2384C15.8382 20.4203 15.877 20.6154 15.877 20.8124V26.8124C15.877 27.2102 15.7189 27.5917 15.4376 27.873C15.1563 28.1543 14.7748 28.3124 14.377 28.3124C13.9791 28.3124 13.5976 28.1543 13.3163 27.873C13.035 27.5917 12.877 27.2102 12.877 26.8124V20.8124ZM16.877 20.6454V26.0754C16.8768 26.447 16.9802 26.8114 17.1755 27.1276C17.3709 27.4438 17.6505 27.6992 17.983 27.8654L18.033 27.8904C18.5878 28.1677 19.1996 28.3122 19.82 28.3124H25.236C25.6985 28.3126 26.1468 28.1524 26.5045 27.8592C26.8622 27.566 27.1073 27.1579 27.198 26.7044L28.398 20.7044C28.4559 20.4143 28.4488 20.1149 28.3772 19.8278C28.3055 19.5408 28.171 19.2732 27.9834 19.0444C27.7958 18.8156 27.5598 18.6312 27.2924 18.5047C27.025 18.3781 26.7328 18.3124 26.437 18.3124H22.877V14.3124C22.877 13.7819 22.6662 13.2732 22.2912 12.8982C21.9161 12.5231 21.4074 12.3124 20.877 12.3124C20.6117 12.3124 20.3574 12.4177 20.1698 12.6053C19.9823 12.7928 19.877 13.0472 19.877 13.3124V13.9794C19.877 14.8449 19.5962 15.687 19.077 16.3794L17.677 18.2454C17.1577 18.9378 16.877 19.7799 16.877 20.6454Z" fill="white"/>
</svg>