<svg  viewBox="0 0 20 25" fill="none" xmlns="http://www.w3.org/2000/svg">
<path d="M9.20599 5.23115V4.08697L8.36634 4.86423L3.69744 9.18615C3.33541 9.52128 2.7336 9.52128 2.37158 9.18615L2.03192 9.55308L2.37158 9.18615C2.03166 8.8715 2.03166 8.3785 2.37158 8.06385L9.46093 1.50135L9.12311 1.1364L9.46094 1.50135C9.82296 1.16622 10.4248 1.16622 10.7868 1.50135L17.8761 8.06385L18.2158 7.69692L17.8761 8.06385C18.216 8.37851 18.216 8.87149 17.8761 9.18615C17.5141 9.52128 16.9124 9.52128 16.5503 9.18615L11.8814 4.86423L11.0417 4.08698V5.23115V16.9375C11.0417 17.3506 10.6678 17.75 10.1239 17.75C9.57989 17.75 9.20599 17.3506 9.20599 16.9375V5.23115ZM1.17139 23.0625C1.17139 22.6494 1.54528 22.25 2.08926 22.25H18.1585C18.7024 22.25 19.0763 22.6495 19.0763 23.0625C19.0763 23.4755 18.7024 23.875 18.1585 23.875H2.08926C1.54528 23.875 1.17139 23.4756 1.17139 23.0625Z" fill="#6B7280" stroke="#569AB2"/>
</svg>
