<svg width="47" height="47" viewBox="0 0 47 47" fill="none" xmlns="http://www.w3.org/2000/svg">
<g filter="url(#filter0_dd)">
<rect x="3.40332" y="2.56372" width="40" height="40" rx="4" fill="white"/>
<rect x="3.90332" y="3.06372" width="39" height="39" rx="3.5" stroke="#A9D2E0"/>
</g>
<path d="M14.9033 22.8777C14.9033 22.6807 14.9421 22.4856 15.0175 22.3037C15.0929 22.1217 15.2034 21.9563 15.3427 21.817C15.4819 21.6777 15.6473 21.5672 15.8293 21.4919C16.0113 21.4165 16.2063 21.3777 16.4033 21.3777C16.6003 21.3777 16.7954 21.4165 16.9773 21.4919C17.1593 21.5672 17.3247 21.6777 17.464 21.817C17.6033 21.9563 17.7138 22.1217 17.7891 22.3037C17.8645 22.4856 17.9033 22.6807 17.9033 22.8777V28.8777C17.9033 29.2755 17.7453 29.657 17.464 29.9383C17.1827 30.2196 16.8011 30.3777 16.4033 30.3777C16.0055 30.3777 15.624 30.2196 15.3427 29.9383C15.0614 29.657 14.9033 29.2755 14.9033 28.8777V22.8777ZM18.9033 22.7107V28.1407C18.9031 28.5123 19.0065 28.8767 19.2019 29.1929C19.3973 29.5091 19.6769 29.7646 20.0093 29.9307L20.0593 29.9557C20.6142 30.233 21.226 30.3775 21.8463 30.3777H27.2623C27.7248 30.3779 28.1731 30.2177 28.5309 29.9245C28.8886 29.6314 29.1337 29.2232 29.2243 28.7697L30.4243 22.7697C30.4823 22.4796 30.4752 22.1802 30.4035 21.8931C30.3318 21.6061 30.1974 21.3385 30.0098 21.1097C29.8222 20.8809 29.5862 20.6966 29.3188 20.57C29.0514 20.4434 28.7592 20.3777 28.4633 20.3777H24.9033V16.3777C24.9033 15.8473 24.6926 15.3385 24.3175 14.9635C23.9425 14.5884 23.4338 14.3777 22.9033 14.3777C22.6381 14.3777 22.3837 14.483 22.1962 14.6706C22.0087 14.8581 21.9033 15.1125 21.9033 15.3777V16.0447C21.9033 16.9102 21.6226 17.7523 21.1033 18.4447L19.7033 20.3107C19.184 21.0031 18.9033 21.8452 18.9033 22.7107Z" fill="#84BFD2"/>
<defs>
<filter id="filter0_dd" x="0.40332" y="0.563721" width="46" height="46" filterUnits="userSpaceOnUse" color-interpolation-filters="sRGB">
<feFlood flood-opacity="0" result="BackgroundImageFix"/>
<feColorMatrix in="SourceAlpha" type="matrix" values="0 0 0 0 0 0 0 0 0 0 0 0 0 0 0 0 0 0 127 0"/>
<feOffset dy="1"/>
<feGaussianBlur stdDeviation="1.5"/>
<feColorMatrix type="matrix" values="0 0 0 0 0.145098 0 0 0 0 0.333333 0 0 0 0 0.396078 0 0 0 0.1 0"/>
<feBlend mode="normal" in2="BackgroundImageFix" result="effect1_dropShadow"/>
<feColorMatrix in="SourceAlpha" type="matrix" values="0 0 0 0 0 0 0 0 0 0 0 0 0 0 0 0 0 0 127 0"/>
<feOffset dy="1"/>
<feGaussianBlur stdDeviation="1"/>
<feColorMatrix type="matrix" values="0 0 0 0 0.145098 0 0 0 0 0.333333 0 0 0 0 0.396078 0 0 0 0.06 0"/>
<feBlend mode="normal" in2="effect1_dropShadow" result="effect2_dropShadow"/>
<feBlend mode="normal" in="SourceGraphic" in2="effect2_dropShadow" result="shape"/>
</filter>
</defs>
</svg>
