<svg width="9" height="15" viewBox="0 0 9 15" fill="none" xmlns="http://www.w3.org/2000/svg">
<g opacity="0.5">
<path fill-rule="evenodd" clip-rule="evenodd" d="M8.57081 4.72326C8.4218 4.87605 8.21972 4.96188 8.00902 4.96188C7.79831 4.96188 7.59623 4.87605 7.44722 4.72326L4.83053 2.03949L2.21384 4.72326C2.06397 4.87172 1.86325 4.95387 1.6549 4.95201C1.44656 4.95015 1.24726 4.86444 1.09993 4.71334C0.952598 4.56223 0.869028 4.35782 0.867218 4.14413C0.865407 3.93044 0.945501 3.72457 1.09025 3.57086L4.26873 0.310885C4.41775 0.158097 4.61982 0.0722656 4.83053 0.0722656C5.04123 0.0722656 5.24331 0.158097 5.39233 0.310885L8.57081 3.57086C8.71978 3.7237 8.80347 3.93096 8.80347 4.14706C8.80347 4.36317 8.71978 4.57043 8.57081 4.72326Z" fill="#17353F"/>
<path fill-rule="evenodd" clip-rule="evenodd" d="M8.57081 9.68375C8.4218 9.53096 8.21972 9.44513 8.00902 9.44513C7.79831 9.44513 7.59623 9.53096 7.44722 9.68375L4.83053 12.3675L2.21384 9.68375C2.06397 9.53529 1.86325 9.45314 1.6549 9.455C1.44656 9.45686 1.24726 9.54257 1.09993 9.69368C0.952598 9.84478 0.869028 10.0492 0.867218 10.2629C0.865407 10.4766 0.945501 10.6824 1.09025 10.8361L4.26873 14.0961C4.41775 14.2489 4.61982 14.3347 4.83053 14.3347C5.04123 14.3347 5.24331 14.2489 5.39233 14.0961L8.57081 10.8361C8.71978 10.6833 8.80347 10.4761 8.80347 10.2599C8.80347 10.0438 8.71978 9.83658 8.57081 9.68375Z" fill="#17353F"/>
</g>
</svg>
