<svg width="9" height="6" viewBox="0 0 9 6" fill="none" xmlns="http://www.w3.org/2000/svg">
<path fill-rule="evenodd" clip-rule="evenodd" d="M8.57081 0.683747C8.4218 0.530961 8.21972 0.445129 8.00902 0.445129C7.79831 0.445129 7.59623 0.530961 7.44722 0.683747L4.83053 3.36751L2.21384 0.683747C2.06397 0.53529 1.86325 0.453144 1.6549 0.455001C1.44656 0.456858 1.24726 0.542569 1.09993 0.693675C0.952598 0.84478 0.869028 1.04919 0.867218 1.26288C0.865407 1.47657 0.945501 1.68243 1.09025 1.83614L4.26873 5.0961C4.41775 5.24889 4.61982 5.33472 4.83053 5.33472C5.04123 5.33472 5.24331 5.24889 5.39233 5.0961L8.57081 1.83614C8.71978 1.68331 8.80347 1.47605 8.80347 1.25994C8.80347 1.04384 8.71978 0.83658 8.57081 0.683747Z" fill="#17353F"/>
</svg>
