<svg width="76" height="33" viewBox="0 0 76 33" fill="none" xmlns="http://www.w3.org/2000/svg">
<path d="M15.0944 6.15468H12.0822L8.63966 19.36C8.34381 20.4627 8.31692 21.3771 8.29002 21.3771H8.23623C8.23623 21.3771 8.15555 20.4358 7.9135 19.36L4.90128 6.15468H1.32427L6.11154 25.25H10.1189L13.0504 13.9542C13.3731 12.717 13.5345 11.453 13.5345 11.453H13.5883C13.5883 11.453 13.7497 12.717 14.0724 13.9542L17.0039 25.25H21.0113L25.933 6.15468H22.356L19.2093 19.36C18.9673 20.4358 18.8866 21.3771 18.8866 21.3771H18.8328C18.8059 21.3771 18.779 20.4627 18.4832 19.36L15.0944 6.15468ZM30.3658 25.25H42.2265V22.2647H33.8353V17.1278H40.2631V14.1424H33.8353V9.14H41.7961V6.15468H30.3658V25.25ZM47.1804 25.25H58.9065V22.2647H50.6498V6.15468H47.1804V25.25ZM63.0231 25.25H74.7492V22.2647H66.4925V6.15468H63.0231V25.25Z" fill="#17353F"/>
</svg>
